<?xml version="1.0" ?><!DOCTYPE svg  PUBLIC '-//W3C//DTD SVG 1.1//EN'  'http://www.w3.org/Graphics/SVG/1.1/DTD/svg11.dtd'><svg enable-background="new 0 0 512 512" height="512px" id="dressing_x5F_table_1_" version="1.1" viewBox="0 0 512 512" width="512px" xml:space="preserve" xmlns="http://www.w3.org/2000/svg" xmlns:xlink="http://www.w3.org/1999/xlink"><g id="dressing_x5F_table" fill='#3a312c'><path d="M408.435,186.517H391.8c-3.779,0-6.854,3.075-6.854,6.855v38.641h-10.304v-12.642c0-3.779-3.075-6.854-6.854-6.854h-30.69   c-3.78,0-6.855,3.075-6.855,6.854v12.642h-70.647h-7.2h-70.642v-12.642c0-3.779-3.075-6.854-6.854-6.854h-30.69   c-3.78,0-6.855,3.075-6.855,6.854v12.642h-10.298v-38.641c0-3.78-3.075-6.855-6.854-6.855h-16.635   c-3.779,0-6.854,3.075-6.854,6.855v38.641v7.2v249.572c0,5.302,4.313,9.615,9.614,9.615h146.069h7.2h146.081   c5.302,0,9.615-4.313,9.615-9.615V239.213v-7.2v-38.641C415.29,189.592,412.215,186.517,408.435,186.517z M144.552,219.717h30   v12.296h-30V219.717z M103.91,193.716h15.943v38.296H103.91V193.716z M252.394,491.2H106.324c-1.332,0-2.414-1.083-2.414-2.415   V239.213h23.144h10.298h44.4h70.642V491.2z M337.441,219.717h30v12.296h-30V219.717z M408.09,488.785   c0,1.332-1.084,2.415-2.415,2.415H259.594V239.213h70.647h44.4h10.304h23.145V488.785z M408.09,232.013h-15.944v-38.296h15.944   V232.013z"/><path d="M113.711,481.398h128.882V249.014H113.711V481.398z M120.911,256.214h114.481v217.985H120.911V256.214z"/><path d="M269.396,481.398h128.894V249.014H269.396V481.398z M276.596,256.214h114.493v217.985H276.596V256.214z"/><rect height="43.068" width="7.2" x="220.84" y="343.672"/><rect height="43.068" width="7.2" x="284.311" y="343.672"/><path d="M255.994,225.25c44.884,0,81.399-47.473,81.399-105.825c0-58.352-36.516-105.825-81.399-105.825   s-81.399,47.473-81.399,105.825C174.595,177.777,211.11,225.25,255.994,225.25z M255.994,20.8   c40.913,0,74.199,44.243,74.199,98.625c0,54.382-33.286,98.625-74.199,98.625c-40.914,0-74.199-44.243-74.199-98.625   C181.795,65.043,215.08,20.8,255.994,20.8z"/><path d="M255.994,207.25c16.179,0,31.646-8.616,43.554-24.262c12.797-16.815,19.845-39.389,19.845-63.563   c0-24.173-7.048-46.747-19.845-63.563C287.641,40.216,272.173,31.6,255.994,31.6s-31.646,8.616-43.554,24.262   c-12.797,16.816-19.846,39.39-19.846,63.563c0,24.174,7.049,46.748,19.846,63.563C224.348,198.633,239.815,207.25,255.994,207.25z    M218.17,60.222C228.684,46.407,242.116,38.8,255.994,38.8s27.311,7.607,37.823,21.422c11.85,15.569,18.375,36.595,18.375,59.203   c0,22.608-6.525,43.633-18.375,59.203c-10.513,13.814-23.945,21.422-37.823,21.422s-27.311-7.608-37.824-21.422   c-11.85-15.569-18.375-36.595-18.375-59.203C199.795,96.817,206.32,75.792,218.17,60.222z"/></g></svg>